<svg viewBox="0 0 410 616" fill="none" x="0px" y="0px" preserveAspectRatio="none" xmlns="http://www.w3.org/2000/svg">
    <path fill-rule="evenodd" clip-rule="evenodd" d="M85.6497 0.634114C102.343 1.89097 115.705 2.89697 134 22.4989C134.632 23.176 135.238 23.8305 135.823 24.4624C145.21 34.5995 149.203 38.9119 168.5 37.4993C179.699 36.6795 228.167 37.1659 251 37.4993H251.001C262.001 37.4993 270.501 37.4993 289 16C301.111 1.92454 315.232 0.174842 333.448 0H380C396.569 0 410 13.4315 410 30V586C410 602.569 396.569 616 380 616H30C13.4315 616 0 602.569 0 586V30C0 13.4315 13.4315 0 30 0H78.0075C80.6454 0.257338 83.1839 0.448462 85.6497 0.634114Z" fill="url(#pricing)"></path>
    <defs>
        <linearGradient id="pricing" x1="-35.4999" y1="-46.5001" x2="393.384" y2="749.254" gradientUnits="userSpaceOnUse">
            <stop offset="0.0246007" stop-color="#C8BDFF"></stop>
            <stop offset="0.0246007" stop-color="#BAA6FF"></stop>
            <stop offset="0.214137" stop-color="#6721FF"></stop>
            <stop offset="0.486687" stop-color="#6721FF"></stop>
            <stop offset="1" stop-color="#00CBFF"></stop>
        </linearGradient>
    </defs>
</svg>